<svg xmlns="http://www.w3.org/2000/svg" width="76" height="76" viewBox="0 0 76 76">
  <defs>
    <style>
      .cls-1 {
        fill: #f56856;
      }

      .cls-2 {
        fill: #fff;
        stroke: #f56856;
        stroke-linejoin: round;
        stroke-width: 2px;
        fill-rule: evenodd;
      }
    </style>
  </defs>
  <ellipse class="cls-1" cx="36" cy="40" rx="22" ry="31"/>
  <path id="Forma_1_copy_3" data-name="Forma 1 copy 3" class="cls-2" d="M733,1371a35,35,0,1,0,35,35A35,35,0,0,0,733,1371Zm8.336,22.62a1.423,1.423,0,0,1,.461,1.96c-0.414.67-2.68,1.63-2.68,1.63s-0.152-2.46.266-3.13A1.427,1.427,0,0,1,741.336,1393.62Zm-4.77-2.89a1.709,1.709,0,0,1,2.93,1.76c-0.484.81-3.195,2-3.195,2S736.078,1391.54,736.566,1390.73Zm-4.12-2.19a1.918,1.918,0,0,1,3.7,1c-0.271,1.02-2.826,3.14-2.826,3.14S732.17,1389.57,732.446,1388.54Zm-6.252-1.47a2.695,2.695,0,0,1,5.2,1.4c-0.383,1.43-3.976,4.42-3.976,4.42S725.805,1388.51,726.194,1387.07Zm9,29.54c-2.085,11.6-6.667,11.09-8.5,9.88-1.52-1-2.927-4.29,1.842-10.48,2.122-2.74-.851-6.05-3.7-9.7a7.748,7.748,0,0,1,2.882-12.01c3.5-1.72,9.081,1.26,11.264,6.13S736.234,1410.83,735.191,1416.61Zm7.406-17.28a6.975,6.975,0,0,1-2.312.79,7.079,7.079,0,0,1,.728-2.34A1.108,1.108,0,1,1,742.6,1399.33Z" transform="translate(-695 -1368)"/>
</svg>
