<svg xmlns="http://www.w3.org/2000/svg" width="76" height="76" viewBox="0 0 76 76">
  <defs>
    <style>
      .cls-1 {
        fill: #f56856;
      }

      .cls-2 {
        fill: #fff;
        stroke: #f56856;
        stroke-linejoin: round;
        stroke-width: 2px;
        fill-rule: evenodd;
      }
    </style>
  </defs>
  <ellipse id="Ellipse_521_copy_13" data-name="Ellipse 521 copy 13" class="cls-1" cx="37" cy="39" rx="22" ry="31"/>
  <path id="Shape_1_copy_4" data-name="Shape 1 copy 4" class="cls-2" d="M733,1220.68a3.637,3.637,0,0,0-1.816,6.79v4.05h3.631v-4.05A3.637,3.637,0,0,0,733,1220.68Zm0-17.65a5.556,5.556,0,0,0-5.548,5.55v5.9h11.1v-5.9A5.555,5.555,0,0,0,733,1203.03Zm0-20.03a35,35,0,1,0,35,35A35,35,0,0,0,733,1183Zm10.755,52.99H722.246a4.111,4.111,0,0,1-4.112-4.11V1218.6a4.12,4.12,0,0,1,3.267-4.03v-5.99a11.6,11.6,0,1,1,23.2,0v5.99a4.121,4.121,0,0,1,3.267,4.03v13.28h0A4.112,4.112,0,0,1,743.754,1235.99Z" transform="translate(-695 -1180)"/>
</svg>
